<svg xmlns="http://www.w3.org/2000/svg" id="SvgjsSvg85124" width="4096" height="2495.384172585179" version="1.1" xmlns:xlink="http://www.w3.org/1999/xlink" xmlns:svgjs="http://svgjs.com/svgjs"><defs id="SvgjsDefs85125"></defs><g id="SvgjsG85126" transform="translate(328, 328) scale(34.4)" opacity="1"><defs id="SvgjsDefs25471"></defs><g id="SvgjsG25472" transform="scale(0.21645021645021645)" opacity="1"><g id="SvgjsG25473" class="8J66kFYIr" transform="translate(137.11593231987214, -0.02532125222647439) scale(0.6386751612009928)" light-content="false" non-strokable="false" fill="#40798c"><path opacity=".8" d="M266.3 62.1c-1.9-1.7-3.8-3.4-5.6-5.1.2.2.3.5.5.7 1.7 1.5 3.4 3 5.1 4.4zm-.8 5.7c.3.9 3.2 4.4 6.5 8.9.4.6.9 1.1 1.3 1.7.4.6.8 1.2 1.3 1.8.9 1.2 1.7 2.5 2.6 3.7 1.7 2.5 3.3 5 4.8 7.2-3.7-5.2-9.2-12.3-14.1-17.7 1.1 1.7 2.2 3.4 3.4 5.2 1.7 2.2 3.3 4.7 4.8 6.7l-2.4-3c.9 1.3 1.8 2.6 2.7 3.8.8 1.2 1.6 2.4 2.3 3.6.7 1.1 1.5 2.2 2.2 3.3.7 1.1 1.3 2.1 2 3.2.6 1 1.3 2 1.9 3 .6 1 1.2 2 1.7 3 .6 1 1.1 2 1.7 3 .6 1 1.1 2.1 1.6 3.2-.9-2.5-1.9-4.7-2.6-6.7-.8-2-1.3-3.7-1.8-5-.6-1.7-1.5-3.7-2.6-6-1.1-2.2-2.4-4.8-3.9-7.4-1.3-1.7-2.9-3.7-4.5-5.8-1.7-2.1-3.5-4.3-5.2-6.4 1.6 2.3 1.6 2.4 4.2 5.3-1.3-1.5-3.2-3.7-4.8-5.5-1.8-1.7-3.1-3.1-3.1-3.1zm27.2 135.4c.4-3.7.8-7.9 1-12.2l-.9 4.8-1.2 4.8c-.1 1-.3 2.1-.4 3.3l-.6 3.6c-.2.3-.3.5-.5.8 0-.4-.1-1 .2-3 0 .1-.1.2-.1.4-.3.9-.5 1.8-.8 2.7l-.9 2.7c.3-.5.6-1 .8-1.5-.4 1.4-.8 2.8-1.2 4.1-.5 1.3-.9 2.6-1.3 3.7-.7 2.3-1.3 4-1.3 4.7 1.1-1 4.3-9.2 6.4-16.2.2-.9.5-1.8.8-2.7z"></path><path opacity=".8" d="M321.1 163.2c-1-10.9-2.9-21-5.5-30.6-.4-1.3-.8-2.7-1.3-4l-1.5-4.2c-.9-2.8-2.1-5.5-3-8-.4-.9-.7-1.7-1-2.5-.3-.8-.6-1.5-.9-2.1-.6-1.3-1-2.5-1.4-3.4-.8-1.9-1.3-3.2-1.8-4.3-.9-2.1-1.1-3.4-2.8-6.6l.6 1.4.6 1.4c-.7-1.5-1.5-2.9-2.2-4.4 1.4 3.3 2.1 6.2 2.6 8.1.4 2 .4 3-.2 3-.1 0-.3-.1-.4-.2l-.6-3.3c-2.2-11.4-5.7-22.6-11-33.1-10.3-21.1-26.9-39.3-47.5-51.6-6.6-4-13.5-7.2-20.7-9.9-7.2-2.7-14.5-4.8-22-6.2C193.6 1.3 186 .4 178.4.1c-7.6-.2-15.2.1-22.7.9-5.1.6-10.2 1.4-15.2 2.4C126 3.2 111.4 4.9 97.2 9c-12.7 3.7-25.1 9.1-36.4 16.6-5.7 3.6-11.1 7.9-16.2 12.4-1.3 1.2-2.5 2.3-3.8 3.5L39 43.3l-1.8 1.9c-2.4 2.4-4.6 5.1-6.9 7.8C17.7 68.4 8.5 87 3.7 107.1c-.4 1.8-.8 3.7-1.2 5.6C.8 121.5 0 130.8 0 140.1c0 9.3.9 18.5 2.4 27.1l.3 1.5v6.8c0 1.4-.1 2.6-.2 3.9 0 1.3-.1 2.7.1 4.7.5 7.2 1.8 14.7 3.6 22l.7 2.7c.2.9.5 1.8.8 2.7l1.8 5.4c1.4 3.5 2.7 7 4.3 10.3.4.8.8 1.7 1.2 2.5.4.8.9 1.6 1.3 2.4.9 1.6 1.7 3.2 2.6 4.7.9 1.5 1.9 3 2.8 4.4l.7 1.1.7 1 1.5 2.1c1.9 2.8 4.1 5.2 6 7.6 1 1.2 2.1 2.2 3.1 3.3 1 1 2 2.1 3 3-.1-.2-.3-.3-.4-.5.1.1.2.3.4.4-.9-1.1-1.6-2.2-2.3-3.2.6.6 1.1 1.3 1.7 1.9 1.8 1.8 3.7 3.5 5.7 5.4-2.7-3.3-4.5-5.8-6.9-8.8-6.1-7.6-11.4-16-15.4-24.6-4-8.6-6.8-17.4-8.3-25.3-.5-2.6-.9-5.2-1.1-7.7l1.2 3.3c.5 1.4 1 2.8 1.5 4 .5 1.3 1 2.4 1.4 3.5 1.2 3.4 2.7 6.7 4.2 9.9.7 1.6 1.5 3.2 2.3 4.8.8 1.6 1.5 3.2 2.4 4.7 1 1.7 1.9 3.5 2.9 5.2l3 5.1 1.5 2.5 1.6 2.4c1.1 1.6 2.2 3.3 3.3 4.9 2.3 3.1 4.6 6.3 7.1 9.3 1.2 1.5 2.4 3.1 3.7 4.5l3.9 4.4c.4.4.8.7 1.2 1.1l1.2 1c.8.7 1.7 1.4 2.5 2 1.6 1.4 3.2 2.7 4.8 3.8 1.3 1.2 2.7 2.5 4.1 3.7 1.4 1.2 3 2.4 4.5 3.7l1.5 1.2c-1.3-.6-2.5-1.2-3.7-1.8-.7-.4-1.5-.8-2.2-1.2-2.1-1.2-4.2-2.4-6.2-3.6-2-1.3-3.9-2.5-5.7-3.7-1.8-1.3-3.5-2.5-5.1-3.6-1-.8-1.3-.9-1-.6-1.5-1.2-3-2.3-4.3-3.4-.8-.6-1.2-.9-1.4-1-1.6-1.1-1.2-.3 0 1.5 1.7 2.1 4.6 5.6 7.4 8 6.5 5.8 13.4 10.6 20.6 14.6 7.3 4 14.9 7.2 23.2 9.8.9.3 1.9.6 2.8.8 2 1.1 4 2.1 6 3.1 7.9 3.9 16.2 7 24.4 9.6 1 .3 2.1.6 3.1 1 1 .3 2.1.6 3.1.8 1 .3 2.1.5 3.1.8 1 .3 2 .5 3.1.7 2.1.4 4.1.9 6.1 1.3 2 .3 4 .7 6 1h.3c-2.6.1 1.1 1.1 6.1 1.8 2.5.5 5.3.7 7.9.9 2.5.3 4.7.3 6 .4 12.7.5 21.6-.3 29.9-1.3 8.2-1.1 15.9-2.5 25.8-5.6 3.8-1.4 7.6-2.7 11.2-4.4 9.8-4.3 19.2-9.9 27.7-16.5 8.6-6.6 16.4-14.1 23.3-22.4 1.2-1.5 2.3-3.1 3.4-4.5.5-.7 1.1-1.4 1.6-2.1.5-.7 1-1.4 1.4-2.1.9-1.4 1.8-2.7 2.7-4 .8-1.3 1.6-2.5 2.3-3.7.7-1.2 1.4-2.3 2.1-3.4.6-1.1 1.2-2.2 1.8-3.2.6-1 1.1-2 1.6-2.9.5-.9.9-1.8 1.4-2.7.9-1.7 1.7-3.3 2.4-4.7.7-1.4 1.3-2.8 1.9-4 .6-1.2 1.2-2.3 1.6-3.4.5-1.1.9-2 1.4-3 .9-1.9 1.7-3.6 2.4-5.5s1.5-3.9 2.2-6.3c.3-1.2.7-2.5 1.1-3.9.2-.7.4-1.5.6-2.3.2-.8.3-1.6.5-2.5.3-1.8.7-3.7 1-5.8.2-2.1.5-4.5.7-7 .7-10.2.5-19.7-.4-28.7zm-17.2-10.3c.2 1.2.4 2.4.6 3.7-.1-.6-.2-1.1-.2-1.6-.1-.5-.2-1-.3-1.4-.2-.8-.3-1.5-.5-2.1.3 2.7.5 5.7.7 8.8-.2-.5-.3-1-.5-1.6-.3-.9-.5-2.1-.9-4.2l.6-4.2c.2.8.3 1.7.5 2.6zM241.4 277c-.3.2-.6.4-.9.5-1.6.9-3.3 1.6-4.7 2.3-1.4.7-2.8 1.2-3.8 1.6-1 .4-1.8.6-2.2.7.5-.6 2.1-1.4 4.1-2.5 1-.6 2.1-1.2 3.3-1.9.6-.3 1.2-.7 1.8-1 .6-.4 1.2-.8 1.8-1.1-.5.2-1 .3-1.6.5-.6.3-1.2.6-1.7.9-1.4.9-2.9 1.8-4.3 2.6-1.5.8-2.9 1.6-4.2 2.4-3 1.9-6.4 3.9-9.2 5.3.5-.5 1.7-1.2 3.3-2 1.6-1 3.7-2 5.9-3.3 1.5-1 2.9-2 4-2.8-6.7 3.1-14 5.7-22.3 7.8-1.7.5-3.3 1-4.8 1.5 1.3-.4 2.7-.9 4.3-1.4-1.1.2-2.3.5-3.5.8-.8.2-1.7.6-2.7.8-1 .3-2.1.5-3.3.9-.6.2-1.2.3-1.8.5-.6.2-1.3.3-1.9.4-1.3.3-2.7.6-4.2.9-1.2.2-2.5.4-3.7.6.5-.2 1.1-.4 1.6-.6C197 289 203 286 209 283l4.4-2.5 2.2-1.2 2.1-1.3 4.3-2.7 4.2-2.8c2.8-1.8 5.5-4 8.2-6 1.4-1 2.6-2.1 4-3.2 1.3-1.1 2.7-2.1 3.9-3.3 18.2-15.7 33.1-34.5 43.8-55.3 5.3-10.4 9.6-21.3 12.7-32.4.9-2.8 1.4-5.6 2.1-8.4.3-1.4.6-2.9.9-4.4.3 6.3.1 12.1-.4 16.7-.4 3.1-.8 5.6-1.4 7.5-.6 1.8-1.1 2.9-1.6 3.1-.1 1.6-.3 3.3-.5 4.9-1.3 9.9-3.2 16.2-4.6 19.9-.7 1.9-1.2 3.1-1.7 3.8-.5.7-.7.8-.9.6-.5 1.4-1 2.8-1.4 4.3-.5 1.4-1.1 2.8-1.6 4.2-1 2.8-2.4 5.4-3.6 8-2.6 5-5.3 9.6-7.8 13-1.1 1.4-2 2.8-3.1 4-1.1 1.3-2.2 2.5-3.2 3.8-1.1 1.2-2.3 2.3-3.4 3.5l-1.7 1.7c-.6.5-1.2 1.1-1.8 1.6-4.6 4.3-9.5 7.9-14.6 11.3-2.3 2-4.8 3.9-7.1 5.6zm-205-167.8c.7-1.8 1.5-3.6 2.2-5.4.2-.4.3-.7.5-1.1l.4-.9c.7-1.5 1.4-3 2.2-4.5.3-.6.6-1.1.9-1.7.4-.8.9-1.7 1.4-2.5 1-1.7 1.9-3.4 3-5.1.1-.1.1-.2.2-.4.4-.7.9-1.4 1.3-2 7.2-11.4 16.5-21.7 27-30.4 5.3-4.3 10.9-8.3 16.8-11.8 5.9-3.4 12.1-6.4 18.4-8.9 6.3-2.5 12.9-4.4 19.4-5.9 6.6-1.4 13.2-2.5 19.9-2.8 16.4-1.2 33.4.6 49.7 5.9.9.3 1.8.6 2.8.9.4.2.8.3 1.2.5 15.1 5.5 29.6 14 42.2 25.8 1.4 1.4 2.4 2.1 3 2.4.1.3.4.7.9 1.2l.3.3.2.2c12.9 12.8 22.9 28.2 29.2 44.9 4.8 12.5 7.6 25.6 8.3 38.8v.3c.1.9.1 1.8.1 2.7 0 .7 0 1.3.1 2v6.7c0 1.4-.1 2.9-.2 4.3v.1c-.2 3.1-.5 6.1-.9 9.1 0 .2 0 .4-.1.5-.2 1.5-.4 3-.7 4.4v.1c-.2 1.3-.5 2.5-.7 3.8-.1.6-.2 1.1-.4 1.7-.2.7-.3 1.4-.5 2.1-.4 1.7-.8 3.3-1.3 4.9v.2c-.3 1-.6 1.9-.9 2.9-.1.2-.1.4-.2.6-.1.4-.3.9-.4 1.3-.4.9-.8 1.8-1.3 2.7-.1.2-.2.3-.2.5-.5.9-.9 1.9-1.4 2.8l-.6 1.2c-.4.8-.9 1.6-1.3 2.4-.2.3-.4.7-.6 1-.5.9-1.1 1.9-1.6 2.8-.1.1-.1.2-.2.3-2.8 4.6-5.7 9-8.9 13.3-6.4 8.6-13.7 16.6-21.6 24-7.8 7.3-16.3 13.9-25.3 19.9-.1 0-.1.1-.2.1-1 .7-2 1.3-3 1.9-.1.1-.3.2-.4.3-.9.6-1.8 1.1-2.8 1.7-.2.1-.5.3-.7.5-.8.5-1.6 1-2.4 1.4-.4.2-.7.4-1.1.6-.7.4-1.3.7-2 1.1-.5.3-1.1.6-1.6.9-.4.2-.8.4-1.1.6-3.7 2-7.5 3.9-11.5 5.7-2.7.7-5.4 1.4-8.1 1.9-.8.2-1.5.3-2.3.5l-1.8.3c-1.3.2-2.7.4-4 .6-.5.1-1.1.2-1.6.2l-2.4.3c-.6.1-1.2.1-1.9.2l-3 .3c-1 .1-2 .1-2.9.2-.5 0-1 .1-1.5.1-1.3.1-2.5.1-3.8.1h-4.7c-.8 0-1.6 0-2.5-.1-.5 0-.9 0-1.4-.1-7.3-.4-14.5-1.4-21.6-3-.1 0-.2-.1-.4-.1-.9-.2-1.7-.4-2.6-.6-.2-.1-.4-.1-.7-.2-2.2-.8-4.5-1.8-6.7-2.7-1.4-.6-2.8-1.3-4.2-1.9-1.4-.6-2.9-1.3-4.3-2s-2.8-1.4-4.3-2.1c-1.4-.8-2.8-1.5-4.2-2.3l-2.1-1.2-2.1-1.3c-1.4-.8-2.8-1.7-4.2-2.5-2.7-1.8-5.6-3.6-8.2-5.6-1.3-1-2.7-1.9-4-3l-3.9-3.1c-6.4-5.2-12.4-10.9-17.9-17-4.7-5.1-8.8-10.6-12.7-16.1-1-1.5-2-3.2-3-4.9-.5-.8-.9-1.7-1.4-2.6-.4-.9-.8-1.7-1.2-2.5-.7-1.6-1.4-2.9-1.7-3.9-.4-1-.6-1.6-.6-1.6-1.5-2.8-2.8-5.6-4-8.3-1.3-3.9-2.4-7.9-3.3-11.9-2.3-10.4-3.4-21-3.2-31.5v-.4c0-.8.1-1.7.1-2.5 0-.7.1-1.3.1-2 0-.3 0-.5.1-.8.3-4.4.8-8.8 1.6-13.2 0-.2.1-.4.1-.6.1-.7.2-1.4.4-2 .2-1 .4-1.9.6-2.8l.8-3.4c.3-1.1.5-2.3.9-3.4.1-.2.1-.4.2-.7 1.1-3.7 2.4-7.7 4-11.7zm266.3 46.2c.1 1.2.2 2.5.4 3.8.4 2.7.6 5.5.9 8.6.2 1.2.2 2.3.3 3.5-.1-1.2-.2-2.3-.3-3.5-.3-2.2-.4-4.4-.8-6.7-.2-1.1-.3-2.3-.5-3.5-.1-.5-.1-.9-.2-1.4.1-.3.1-.5.2-.8zM160.8 291c-2.5-.5-5.2-1.1-7.9-1.7 5.8.1 11.6-.2 17.4-.9-3.2 1-6.4 1.8-9.5 2.6zM188 8.6c3.3.3 6.5.8 9.5 1.3l4.5.9c1.5.3 2.9.6 4.3 1s2.8.8 4.2 1.1c1.4.4 2.7.9 4.1 1.3 2.7.8 5.3 1.9 7.9 2.9 1.3.5 2.5 1.1 3.8 1.7 1.3.6 2.5 1.1 3.8 1.8 2.4 1.3 5 2.5 7.4 4 1.2.7 2.5 1.4 3.7 2.2l3.6 2.4c.6.4 1.2.8 1.9 1.2.6.4 1.2.9 1.8 1.3 1.2.9 2.5 1.8 3.7 2.8 1.9 1.5 3.4 2.8 4.8 4 1.3 1.2 2.4 2.2 3.3 3 1.9 1.7 3.1 2.9 4.1 4 2.1 2.1 3.4 3.8 6.7 8.9.7 1.3 1.6 2.8 2.7 4.6 1 1.8 2.1 3.7 3.3 5.8.5 1.1 1.1 2.2 1.7 3.3.6 1.1 1.2 2.2 1.8 3.4 1.1 2.4 2.4 4.7 3.3 7.2.9 1.9 1.7 3.9 2.5 5.8.3.7.5 1.3.8 2 .2.6.5 1.2.7 1.9.6 1.7 1.2 3.4 1.8 5.2.2.6.4 1.2.5 1.8.6 2.1 1.2 4.3 1.7 6.4.3 1.2.5 2.4.8 3.5.3 1.2.5 2.4.7 3.6 1.3 7.3 2 14.6 2.2 22-.4 0-.9-.4-1.6-1.3-1.3-2.7-.4.3 1.3 6.5.1.3.2.7.3 1v.5c-.2 7.1-1 14.3-2.3 21.5 0 .2-.1.3-.1.5-.2.9-.4 1.8-.5 2.7-.1.3-.1.6-.2.9.1-2.7.2-5.3.1-8v-.9c0-1.5-.1-3-.2-4.5v-.3c-.3-5.4-.9-10.7-1.9-16v-.3c0-.1-.1-.3-.1-.4-.1-.5-.2-1-.3-1.4-.1-.7-.3-1.5-.4-2.2-.1-.4-.2-.9-.3-1.3-.1-.5-.2-.9-.3-1.4-.1-.3-.1-.6-.2-.8-.3-1.1-.5-2.1-.8-3.2-.5-1.8-1.1-3.6-1.6-5.4-.5-1.8-1.2-3.5-1.8-5.3-.8-2.1-1.6-4.2-2.4-6.2 0-.1 0-.1-.1-.2-4.9-11.8-11.6-23.1-20.1-33.5-1.3-1.7-2.6-3-3.8-4.3-1.2-1.2-2.2-2.3-3.2-3.1-1.9-1.7-3.4-2.7-4.4-3.2-.4-.2-.7-.3-1-.4-1-1.2-1.9-2.3-2.8-3.4l-.4-.4c-.9-1.1-1.8-2.1-2.6-3.1.2.2.4.3.6.5-.1-.2-.2-.3-.4-.4-.9-1-1.8-2.1-2.7-3.1-.2-.2-.4-.3-.6-.5-1.3-1.4-2.6-2.8-3.9-4.1 1.4 1 2.8 1.9 4 2.9 2.6 1.8 4.9 3.6 6.9 5.2 2.1 1.5 3.8 3 5.2 4.1 2.8 2.2 4.3 3.2 3.9 2.4-.2-.7-.8-1.8-1.8-3.4-1-1.5-2.4-3.5-4.3-5.6-.9-1.1-2-2.3-3.1-3.5-1.1-1.3-2.4-2.5-3.8-3.8-2.7-2.7-5.9-5.4-9.4-8.3-7.1-5.7-16-11.6-26.2-16.7-9.8-4.9-20.9-9-32.5-11.7 3.9 0 8 .1 12.2.6zm57.9 267.6c.3-.2.7-.4 1-.7 1.7-1.2 3.5-2.4 5.2-3.7 1.6-1.3 3.1-2.6 4.4-3.7-.1.2-.2.4-.2.5l-1 .8c-3.3 2.7-6.9 5.2-9.6 7.3 0-.1.1-.3.2-.5zM20.5 144.7c-.6-7.4-.6-14.8.2-22.5 1-2.7 2-5.4 3.2-8.1 3.3-7.8 7.1-15.6 11.5-23.1 2.1-3.6 4.4-7.2 6.8-10.7.1-.2.3-.4.4-.7.9-1.3 1.8-2.5 2.7-3.7.5-.7 1-1.4 1.6-2.2.7-.9 1.4-1.8 2-2.6.7-.9 1.3-1.7 2-2.6 1.2-1.4 2.3-2.8 3.5-4.2l.1-.1c4.3-4.9 8.8-9.7 13.6-14.2l.4-.4c15.4-14.2 32.7-24.8 51.2-31.8 4-.8 8-1.4 12-1.8 7.8-.8 15.6-1 23.5-.6 7.9.5 15.7 1.6 23.6 3.4.9.2 1.9.5 2.9.7 1 .3 2 .6 3.1.9.4.1.8.3 1.3.4-.1 0-.2 0-.2-.1-.1 0-.3-.1-.4-.1-.5-.1-.9-.2-1.4-.3-1.5-.3-3.1-.5-4.6-.8l-2.3-.4-2.3-.3c-1.6-.2-3.1-.4-4.7-.5-2.2-.2-4.3-.3-6.5-.4-.5 0-1 0-1.5-.1-.9 0-1.8 0-2.8-.1h-1.9c-1.2 0-2.3 0-3.5.1h-.3c-.8 0-1.5 0-2.3.1-.7 0-1.4.1-2.1.2h-.1c-.9.1-1.8.1-2.7.2l-1.8.1-2.1.3c-.6.1-1.1.1-1.7.2l-.8.1c-.9.1-1.7.2-2.6.4-1.7.3-3.3.5-4.9.9-.5.1-.9.2-1.4.3h-.3c-1 .2-2 .4-2.9.7l-2.3.5c-.8.2-1.5.4-2.3.6l-4.6 1.3-4.5 1.5c-.1 0-.2.1-.3.1-.2.1-.5.2-.7.2-1 .3-1.9.7-2.9 1.1-.5.2-.9.4-1.4.5-1 .4-2 .8-2.9 1.2-1.7.7-3.4 1.5-5.1 2.2-.1 0-.2.1-.3.1-.7.3-1.3.7-2 1-.5.3-1.1.5-1.6.8-.8.4-1.5.7-2.2 1.1l-.2.1-.6.3c-1.7.9-3.4 1.9-5.1 2.9-.1 0-.1.1-.2.1-1.2.8-2.5 1.6-3.7 2.3L83 40.8l-1.9 1.3c-1.1.8-2.2 1.5-3.3 2.3-.2.2-.4.3-.7.5l-.1.1-.1.1c-1.4 1.1-2.8 2.1-4.1 3.2-3 2.4-5.9 5-8.7 7.7l-.1.1c-.9.9-1.9 1.8-2.8 2.8 0 .1-.1.1-.2.2-.9 1-1.8 1.9-2.7 2.9l-.1.1c-2.8 3.1-5.4 6.2-8 9.5-.3.4-.7.9-1 1.4-.9 1.3-1.9 2.5-2.8 3.8-1.9 2.7-3.6 5.4-5.3 8.2 0 .1-.1.2-.1.2-.1.2-.3.5-.4.7-1.9 3.3-3.7 6.6-5.3 10.1-.1.3-.2.6-.4.8-.4.8-.7 1.6-1.1 2.4-.1.3-.2.6-.4.9-.5 1.2-1 2.3-1.5 3.5l-.7 1.8c-.3.8-.6 1.5-.8 2.3l-.7 1.8-.3 1c-.5 1.4-.9 2.7-1.3 4.1l-.2.8c-.2.5-.3 1.1-.4 1.6-.6 2-1.1 4-1.6 6l-.3 1.5c-.2.7-.3 1.4-.4 2.1-.1.7-.3 1.4-.4 2.1-.2.9-.3 1.8-.5 2.7v.3c-.2.9-.3 1.9-.4 2.8-.1.9-.3 1.9-.4 2.8-.1.5-.1 1-.2 1.5-.1.6-.1 1.1-.2 1.7l-.3 3c0 .4-.1.7-.1 1.1 0 .6-.1 1.1-.1 1.7 0 .5-.1 1-.1 1.5v9.1c0 .7 0 1.4.1 2.1v.7c-1.1-5.1-1.7-10-2.1-15zm284.2-28c2.5 7.3 4.7 16.5 5.7 22.3 0 1.8-.2 2.2-.7 1.6-.2-.3-.5-.8-.9-1.6-.4-.7-.8-1.7-1.2-2.8-.5-1.1-1-2.4-1.5-3.8-.4-1-.9-2.2-1.4-3.3 0-4.9-.3-9.8-.8-14.7.3.7.5 1.5.8 2.3z"></path></g><g id="SvgjsG25474" class="LyZ7Mo7Suh" transform="translate(174.1216270558598, 41.08350475699302) scale(7.068200339789399)" light-content="false" non-strokable="false" fill="#f71735" fill-rule="evenodd" clip-rule="evenodd"><path d="M18.617 7.714c-2.624 1.664-3.012.12-3.821 3.333.148-.25.336-.125.557-.315-.084.147-.258.399-.068 1.233 0-.478.212-.827.387-.884.457.233.125 1.253-.253 1.36-.79.223-2.049-1.536-1.177-2.521-.397-.074-1.659.105-2.073-.49-2.939-2.263-6.9-1.108-8.983-3.838 1.687 3.946 4.901 3.1 7.136 4.41-1.482.362-2.825.031-3.285-.698.547 1.64 2.697 1.981 4.167 2.193-.645.314-1.922.123-2.537-.135 1.299 1.377 2.495 1.567 4.368 1.294-.52.549-1.278.651-2 .621.922.336 1.335.604 2.336.504-1.63 2.723-5.05 2.542-6.871.773.057.217.951 1.285 2.15 1.613-4.145-.47-5.61-2.438-5.61-6.45-.422 1.475-.633 2-.32 3.51-2.377-2.377-1.2-7.268.73-8.635-1.006.208-1.357.724-1.999 1.445.544-2.718 3.498-5.065 6.2-4.368-.663-.585-1.204-.52-2.067-.52 1.16-.58 4.63-1.562 5.489-.023-.112-.41-.565-.647-.475-.628.972.198 1.945.556 2.932 1.02C7.448-2.507-.575 1.961.033 9.192c.832 9.91 16.024 10.883 16.634 1.581.818-1.207.782-2.193 1.95-3.06z"></path></g><g id="SvgjsG25475" class="text" transform="translate(230.61, 246.65859291572644) scale(1)" light-content="false" fill="#40798c"><path d="M-230.61 0L-225.81 0L-225.81 -7.92L-220.83 -7.92C-219.52 -7.92 -218.36 -8.13 -217.33 -8.55C-216.29 -8.97 -215.48 -9.53 -214.9 -10.22C-214.31 -10.92 -213.86 -11.67 -213.57 -12.48C-213.28 -13.29 -213.13 -14.13 -213.13 -14.99C-213.13 -16.99 -213.75 -18.67 -215.01 -20.04C-216.26 -21.4 -218.2 -22.09 -220.83 -22.09L-230.61 -22.09ZM-220.64 -12.43L-225.81 -12.43L-225.81 -17.54L-220.64 -17.54C-219.75 -17.54 -219.11 -17.29 -218.71 -16.77C-218.31 -16.26 -218.11 -15.66 -218.11 -14.99C-218.11 -14.29 -218.32 -13.69 -218.74 -13.19C-219.17 -12.68 -219.8 -12.43 -220.64 -12.43Z M-193.6 0L-188.77 0L-188.77 -22.09L-193.6 -22.09L-193.6 -13.63L-202.37 -13.63L-202.37 -22.09L-207.16 -22.09L-207.16 0L-202.37 0L-202.37 -9.06L-193.6 -9.06Z M-171.89 0.38C-170.18 0.38 -168.68 0.05 -167.38 -0.62C-166.07 -1.28 -165.05 -2.17 -164.32 -3.3C-163.58 -4.42 -163.03 -5.64 -162.66 -6.94C-162.29 -8.25 -162.11 -9.61 -162.11 -11.04C-162.11 -12.47 -162.29 -13.84 -162.66 -15.15C-163.03 -16.45 -163.58 -17.66 -164.32 -18.79C-165.05 -19.92 -166.07 -20.81 -167.38 -21.47C-168.68 -22.13 -170.18 -22.47 -171.89 -22.47C-173.28 -22.47 -174.53 -22.25 -175.66 -21.8C-176.78 -21.36 -177.71 -20.77 -178.45 -20.02C-179.19 -19.27 -179.8 -18.41 -180.3 -17.42C-180.79 -16.43 -181.15 -15.4 -181.37 -14.34C-181.59 -13.28 -181.7 -12.18 -181.7 -11.04C-181.7 -9.91 -181.59 -8.81 -181.37 -7.75C-181.15 -6.68 -180.79 -5.66 -180.3 -4.67C-179.8 -3.68 -179.19 -2.81 -178.45 -2.07C-177.71 -1.32 -176.78 -0.73 -175.66 -0.28C-174.53 0.16 -173.28 0.38 -171.89 0.38ZM-171.89 -4.26C-172.75 -4.26 -173.51 -4.46 -174.16 -4.88C-174.81 -5.29 -175.32 -5.83 -175.67 -6.52C-176.03 -7.2 -176.29 -7.92 -176.46 -8.68C-176.63 -9.43 -176.72 -10.22 -176.72 -11.04C-176.72 -12.14 -176.58 -13.17 -176.31 -14.15C-176.03 -15.13 -175.51 -15.99 -174.74 -16.74C-173.98 -17.49 -173.02 -17.86 -171.89 -17.86C-170.75 -17.86 -169.81 -17.5 -169.05 -16.77C-168.29 -16.04 -167.78 -15.19 -167.5 -14.21C-167.23 -13.24 -167.09 -12.18 -167.09 -11.04C-167.09 -9.97 -167.24 -8.95 -167.53 -7.97C-167.83 -6.99 -168.35 -6.13 -169.11 -5.38C-169.87 -4.63 -170.79 -4.26 -171.89 -4.26Z M-155.04 0L-138.54 0L-138.54 -4.58L-150.24 -4.58L-150.24 -9.12L-144.06 -9.12L-144.06 -13.66L-150.24 -13.66L-150.24 -17.54L-139.17 -17.54L-139.17 -22.09L-155.04 -22.09Z M-113.67 0L-113.67 -22.09L-118.47 -22.09L-118.47 -10.54C-118.47 -9.87 -118.44 -9.31 -118.37 -8.87C-118.58 -9.39 -118.89 -9.94 -119.29 -10.51L-127.4 -22.09L-131.78 -22.09L-131.78 0L-127.05 0L-127.05 -11.71C-127.05 -12.46 -127.08 -13.02 -127.15 -13.38C-126.72 -12.54 -126.41 -11.98 -126.2 -11.71L-117.87 0Z M-105.66 0L-100.86 0L-100.86 -22.09L-105.66 -22.09Z M-79.37 0L-73.72 0L-81.08 -11.36L-74.14 -22.09L-79.81 -22.09L-83.92 -15.75L-88.05 -22.09L-93.7 -22.09L-86.72 -11.36L-94.11 0L-88.46 0L-83.92 -6.97Z M-66.56 -7.13L-57.98 -7.13L-57.98 -11.49L-66.56 -11.49Z M-49.93 0L-45.14 0L-45.14 -22.09L-49.93 -22.09Z M-19.01 0L-19.01 -22.09L-23.81 -22.09L-23.81 -10.54C-23.81 -9.87 -23.78 -9.31 -23.71 -8.87C-23.92 -9.39 -24.23 -9.94 -24.63 -10.51L-32.74 -22.09L-37.12 -22.09L-37.12 0L-32.39 0L-32.39 -11.71C-32.39 -12.46 -32.42 -13.02 -32.48 -13.38C-32.06 -12.54 -31.75 -11.98 -31.54 -11.71L-23.21 0Z M6.96 0L6.96 -22.09L2.16 -22.09L2.16 -10.54C2.16 -9.87 2.19 -9.31 2.26 -8.87C2.05 -9.39 1.74 -9.94 1.34 -10.51L-6.77 -22.09L-11.15 -22.09L-11.15 0L-6.42 0L-6.42 -11.71C-6.42 -12.46 -6.45 -13.02 -6.52 -13.38C-6.1 -12.54 -5.78 -11.98 -5.57 -11.71L2.76 0Z M23.84 0.38C25.54 0.38 27.05 0.05 28.35 -0.62C29.66 -1.28 30.68 -2.17 31.41 -3.3C32.15 -4.42 32.7 -5.64 33.07 -6.94C33.44 -8.25 33.62 -9.61 33.62 -11.04C33.62 -12.47 33.44 -13.84 33.07 -15.15C32.7 -16.45 32.15 -17.66 31.41 -18.79C30.68 -19.92 29.66 -20.81 28.35 -21.47C27.05 -22.13 25.54 -22.47 23.84 -22.47C22.45 -22.47 21.19 -22.25 20.07 -21.8C18.94 -21.36 18.01 -20.77 17.28 -20.02C16.54 -19.27 15.92 -18.41 15.43 -17.42C14.94 -16.43 14.58 -15.4 14.36 -14.34C14.14 -13.28 14.03 -12.18 14.03 -11.04C14.03 -9.91 14.14 -8.81 14.36 -7.75C14.58 -6.68 14.94 -5.66 15.43 -4.67C15.92 -3.68 16.54 -2.81 17.28 -2.07C18.01 -1.32 18.94 -0.73 20.07 -0.28C21.19 0.16 22.45 0.38 23.84 0.38ZM23.84 -4.26C22.98 -4.26 22.22 -4.46 21.57 -4.88C20.91 -5.29 20.41 -5.83 20.05 -6.52C19.69 -7.2 19.43 -7.92 19.26 -8.68C19.1 -9.43 19.01 -10.22 19.01 -11.04C19.01 -12.14 19.15 -13.17 19.42 -14.15C19.69 -15.13 20.22 -15.99 20.98 -16.74C21.75 -17.49 22.7 -17.86 23.84 -17.86C24.97 -17.86 25.92 -17.5 26.68 -16.77C27.44 -16.04 27.95 -15.19 28.22 -14.21C28.5 -13.24 28.63 -12.18 28.63 -11.04C28.63 -9.97 28.49 -8.95 28.19 -7.97C27.9 -6.99 27.37 -6.13 26.62 -5.38C25.86 -4.63 24.93 -4.26 23.84 -4.26Z M44.98 0L49.55 0L57.47 -22.09L52.33 -22.09L47.57 -8.17C47.42 -7.73 47.33 -7.42 47.28 -7.23L47.19 -7.57C47.13 -7.83 47.06 -8.03 47 -8.17L42.23 -22.09L37.03 -22.09Z M75.59 0L80.82 0L72.08 -22.09L67.48 -22.09L58.77 0L64.01 0L65.65 -4.29L73.95 -4.29ZM72.34 -8.71L67.22 -8.71L69.12 -13.47C69.48 -14.36 69.7 -14.98 69.78 -15.34C69.93 -14.81 70.15 -14.19 70.44 -13.47Z M93.32 -17.48L99.66 -17.48L99.66 -22.09L82.18 -22.09L82.18 -17.48L88.52 -17.48L88.52 0L93.32 0Z M106.26 0L111.05 0L111.05 -22.09L106.26 -22.09Z M128.09 0.38C129.8 0.38 131.3 0.05 132.6 -0.62C133.91 -1.28 134.93 -2.17 135.66 -3.3C136.4 -4.42 136.95 -5.64 137.32 -6.94C137.69 -8.25 137.87 -9.61 137.87 -11.04C137.87 -12.47 137.69 -13.84 137.32 -15.15C136.95 -16.45 136.4 -17.66 135.66 -18.79C134.93 -19.92 133.91 -20.81 132.6 -21.47C131.3 -22.13 129.8 -22.47 128.09 -22.47C126.7 -22.47 125.45 -22.25 124.32 -21.8C123.2 -21.36 122.26 -20.77 121.53 -20.02C120.79 -19.27 120.18 -18.41 119.68 -17.42C119.19 -16.43 118.83 -15.4 118.61 -14.34C118.39 -13.28 118.28 -12.18 118.28 -11.04C118.28 -9.91 118.39 -8.81 118.61 -7.75C118.83 -6.68 119.19 -5.66 119.68 -4.67C120.18 -3.68 120.79 -2.81 121.53 -2.07C122.26 -1.32 123.2 -0.73 124.32 -0.28C125.45 0.16 126.7 0.38 128.09 0.38ZM128.09 -4.26C127.23 -4.26 126.47 -4.46 125.82 -4.88C125.17 -5.29 124.66 -5.83 124.31 -6.52C123.95 -7.2 123.68 -7.92 123.52 -8.68C123.35 -9.43 123.26 -10.22 123.26 -11.04C123.26 -12.14 123.4 -13.17 123.67 -14.15C123.95 -15.13 124.47 -15.99 125.24 -16.74C126 -17.49 126.96 -17.86 128.09 -17.86C129.23 -17.86 130.17 -17.5 130.93 -16.77C131.69 -16.04 132.2 -15.19 132.48 -14.21C132.75 -13.24 132.89 -12.18 132.89 -11.04C132.89 -9.97 132.74 -8.95 132.45 -7.97C132.15 -6.99 131.63 -6.13 130.87 -5.38C130.11 -4.63 129.19 -4.26 128.09 -4.26Z M163.05 0L163.05 -22.09L158.26 -22.09L158.26 -10.54C158.26 -9.87 158.29 -9.31 158.35 -8.87C158.14 -9.39 157.84 -9.94 157.44 -10.51L149.33 -22.09L144.94 -22.09L144.94 0L149.67 0L149.67 -11.71C149.67 -12.46 149.64 -13.02 149.58 -13.38C150 -12.54 150.32 -11.98 150.53 -11.71L158.86 0Z M178.51 0.38C180.89 0.38 182.86 -0.23 184.41 -1.45C185.97 -2.67 186.75 -4.32 186.75 -6.41C186.75 -7.18 186.65 -7.9 186.45 -8.55C186.25 -9.2 185.93 -9.77 185.49 -10.25C185.05 -10.74 184.62 -11.15 184.21 -11.5C183.8 -11.85 183.24 -12.17 182.52 -12.48C181.81 -12.78 181.24 -13.01 180.83 -13.16C180.42 -13.31 179.84 -13.5 179.08 -13.76C178.37 -14.01 177.87 -14.19 177.58 -14.29C177.3 -14.4 176.94 -14.56 176.49 -14.77C176.05 -14.98 175.75 -15.19 175.58 -15.4C175.41 -15.61 175.33 -15.85 175.33 -16.12C175.33 -17.32 176.22 -17.92 178.01 -17.92C179.73 -17.92 180.94 -17.13 181.64 -15.56L185.93 -16.94C185.49 -18.56 184.59 -19.89 183.25 -20.92C181.9 -21.95 180.24 -22.47 178.26 -22.47C175.88 -22.47 174 -21.87 172.61 -20.67C171.23 -19.47 170.53 -17.99 170.53 -16.22C170.53 -15.59 170.62 -14.99 170.78 -14.44C170.95 -13.88 171.15 -13.4 171.37 -13.02C171.59 -12.63 171.92 -12.25 172.36 -11.9C172.8 -11.54 173.18 -11.25 173.5 -11.04C173.81 -10.83 174.28 -10.6 174.89 -10.35C175.5 -10.1 175.96 -9.91 176.29 -9.8C176.62 -9.68 177.1 -9.52 177.76 -9.31C178.75 -8.99 179.48 -8.75 179.95 -8.57C180.42 -8.39 180.88 -8.11 181.31 -7.73C181.74 -7.35 181.95 -6.92 181.95 -6.44C181.95 -5.7 181.66 -5.14 181.07 -4.75C180.48 -4.36 179.67 -4.17 178.64 -4.17C177.65 -4.17 176.75 -4.49 175.93 -5.13C175.11 -5.77 174.44 -6.63 173.94 -7.7L169.65 -6.09C170.32 -4.07 171.43 -2.49 172.98 -1.34C174.52 -0.19 176.37 0.38 178.51 0.38Z M195.24 0.38C196.04 0.38 196.72 0.12 197.27 -0.41C197.83 -0.94 198.11 -1.59 198.11 -2.37C198.11 -3.14 197.83 -3.81 197.27 -4.35C196.72 -4.9 196.04 -5.17 195.24 -5.17C194.44 -5.17 193.77 -4.9 193.23 -4.35C192.7 -3.81 192.43 -3.14 192.43 -2.37C192.43 -1.59 192.7 -0.94 193.23 -0.41C193.77 0.12 194.44 0.38 195.24 0.38Z M207.1 -17.67C207.84 -17.67 208.46 -17.93 208.96 -18.44C209.47 -18.96 209.72 -19.57 209.72 -20.29C209.72 -21.03 209.47 -21.64 208.96 -22.13C208.46 -22.63 207.84 -22.88 207.1 -22.88C206.37 -22.88 205.74 -22.62 205.22 -22.12C204.71 -21.61 204.45 -21 204.45 -20.29C204.45 -19.57 204.71 -18.96 205.24 -18.44C205.77 -17.93 206.39 -17.67 207.1 -17.67ZM204.8 0L209.37 0L209.37 -16.12L204.8 -16.12Z M223.98 0.38C226.28 0.38 228.08 -0.37 229.41 -1.86C230.74 -3.36 231.4 -5.42 231.4 -8.05C231.4 -10.65 230.73 -12.72 229.39 -14.23C228.06 -15.75 226.25 -16.5 223.98 -16.5C221.69 -16.5 219.87 -15.75 218.52 -14.23C217.18 -12.72 216.5 -10.65 216.5 -8.05C216.5 -5.42 217.17 -3.36 218.51 -1.86C219.84 -0.37 221.67 0.38 223.98 0.38ZM223.98 -4.04C223.1 -4.04 222.39 -4.39 221.87 -5.1C221.34 -5.8 221.08 -6.78 221.08 -8.05C221.08 -9.31 221.34 -10.3 221.87 -11.01C222.39 -11.73 223.1 -12.09 223.98 -12.09C224.89 -12.09 225.59 -11.73 226.08 -11.01C226.58 -10.3 226.82 -9.31 226.82 -8.05C226.82 -6.78 226.58 -5.8 226.08 -5.1C225.59 -4.39 224.89 -4.04 223.98 -4.04Z"></path></g></g></g></svg>